<svg width="24" height="24" viewBox="0 0 24 24" fill="none" xmlns="http://www.w3.org/2000/svg">
<g clip-path="url(#clip0_342_16955)">
<circle cx="12" cy="12" r="12" fill="#FF6A2B"/>
<path d="M12 4C10.4178 4 8.87103 4.46919 7.55544 5.34824C6.23985 6.22729 5.21447 7.47672 4.60897 8.93853C4.00347 10.4003 3.84504 12.0089 4.15372 13.5607C4.4624 15.1126 5.22433 16.538 6.34315 17.6569C7.46197 18.7757 8.88743 19.5376 10.4393 19.8463C11.9911 20.155 13.5997 19.9965 15.0615 19.391C16.5233 18.7855 17.7727 17.7602 18.6518 16.4446C19.5308 15.129 20 13.5822 20 12C19.9975 9.87903 19.1539 7.84565 17.6541 6.3459C16.1544 4.84615 14.121 4.00249 12 4ZM6.66667 7.37961C7.67617 8.53786 8.27645 9.99613 8.3749 11.5294H4.95687C5.05816 9.9965 5.6587 8.53895 6.66667 7.37961ZM4.95687 12.4706H8.3749C8.27645 14.0039 7.67617 15.4621 6.66667 16.6204C5.6587 15.461 5.05816 14.0035 4.95687 12.4706ZM11.5294 19.0431C9.97527 18.9399 8.49939 18.3236 7.33334 17.291C8.51927 15.9537 9.21901 14.2552 9.31922 12.4706H11.5294V19.0431ZM11.5294 11.5294H9.31922C9.21901 9.74482 8.51927 8.04632 7.33334 6.70902C8.49939 5.67639 9.97527 5.0601 11.5294 4.95686V11.5294ZM19.0431 11.5294H15.6251C15.7235 9.99613 16.3238 8.53786 17.3333 7.37961C18.3413 8.53895 18.9418 9.9965 19.0431 11.5294ZM12.4706 4.95686C14.0247 5.0601 15.5006 5.67639 16.6667 6.70902C15.4807 8.04632 14.781 9.74482 14.6808 11.5294H12.4706V4.95686ZM12.4706 19.0431V12.4706H14.6808C14.781 14.2552 15.4807 15.9537 16.6667 17.291C15.5006 18.3236 14.0247 18.9399 12.4706 19.0431ZM17.3333 16.6204C16.3238 15.4621 15.7235 14.0039 15.6251 12.4706H19.0431C18.9418 14.0035 18.3413 15.461 17.3333 16.6204Z" fill="white"/>
</g>
<defs>
<clipPath id="clip0_342_16955">
<rect width="24" height="24" fill="white"/>
</clipPath>
</defs>
</svg>
